<?xml version="1.0" standalone="no"?>
<!DOCTYPE svg PUBLIC "-//W3C//DTD SVG 20010904//EN"
 "http://www.w3.org/TR/2001/REC-SVG-20010904/DTD/svg10.dtd">
<svg version="1.0" xmlns="http://www.w3.org/2000/svg"
 width="512.000000pt" height="512.000000pt" viewBox="0 0 512.000000 512.000000"
 preserveAspectRatio="xMidYMid meet">

<g transform="translate(0.000000,512.000000) scale(0.100000,-0.100000)"
fill="#000000" stroke="none">
<path d="M4358 5104 c-96 -23 -171 -66 -285 -165 -24 -20 -64 -42 -90 -50 -73
-21 -238 -14 -508 20 -361 46 -442 52 -665 53 -270 1 -438 -19 -676 -81 -213
-56 -449 -159 -654 -286 -162 -100 -198 -152 -147 -209 40 -47 72 -44 162 15
328 215 633 330 1005 380 118 16 456 15 610 0 63 -7 223 -26 355 -43 306 -39
468 -42 572 -10 58 18 90 37 165 97 130 105 226 138 342 116 191 -35 362 -206
397 -397 22 -116 -11 -212 -116 -342 -60 -74 -79 -107 -97 -165 -33 -104 -30
-281 10 -592 44 -342 54 -466 54 -670 -2 -376 -72 -681 -229 -996 -128 -257
-287 -472 -518 -704 -352 -351 -731 -578 -1135 -680 -332 -84 -649 -89 -1205
-18 -514 65 -618 54 -787 -82 -116 -94 -175 -118 -283 -118 -64 -1 -93 5 -145
26 -133 56 -232 155 -286 287 -21 52 -27 82 -27 145 -1 108 24 166 118 283 60
75 79 107 97 165 34 108 30 271 -15 622 -50 393 -62 591 -48 788 36 498 186
877 510 1291 69 89 85 116 85 144 0 57 -63 97 -118 76 -8 -3 -48 -47 -89 -97
-383 -480 -559 -974 -560 -1572 -1 -218 9 -339 54 -695 34 -265 41 -431 20
-503 -8 -26 -30 -66 -50 -90 -130 -150 -180 -265 -181 -408 0 -125 64 -289
158 -402 115 -139 315 -237 487 -237 124 0 267 60 380 160 43 38 81 62 113 71
73 21 237 14 547 -25 496 -61 709 -68 990 -30 563 75 1032 320 1490 779 459
458 706 931 779 1490 38 291 32 491 -30 990 -39 310 -46 474 -25 548 8 26 30
66 50 90 166 192 212 344 161 541 -86 336 -433 565 -742 490z"/>
<path d="M2692 4621 c-50 -5 -68 -11 -83 -30 -30 -36 -25 -84 12 -115 30 -26
33 -26 184 -26 147 0 155 1 181 24 37 31 39 86 4 120 -22 21 -37 25 -130 29
-58 3 -134 2 -168 -2z"/>
<path d="M2160 4535 c-260 -81 -509 -218 -747 -412 -126 -102 -323 -299 -422
-423 -136 -169 -271 -383 -271 -429 0 -31 52 -81 85 -81 43 0 60 15 105 92
117 198 244 360 417 530 284 281 537 443 855 548 146 49 153 53 167 90 12 35
7 56 -22 88 -26 29 -69 28 -167 -3z"/>
<path d="M1035 4255 c-45 -44 -26 -116 37 -138 29 -10 78 13 94 45 43 83 -65
160 -131 93z"/>
<path d="M2380 1290 c-42 -42 -32 -109 21 -139 80 -44 160 69 94 134 -31 31
-86 34 -115 5z"/>
<path d="M2686 1109 c-20 -16 -26 -29 -26 -60 0 -78 78 -116 136 -65 83 70
-24 192 -110 125z"/>
<path d="M2155 1058 c-52 -30 -61 -90 -19 -132 36 -35 82 -35 118 0 35 36 34
77 -3 115 -31 30 -63 36 -96 17z"/>
<path d="M1793 940 c-48 -19 -60 -95 -22 -136 48 -51 139 -17 141 53 2 69 -55
109 -119 83z"/>
<path d="M2460 877 c-31 -16 -54 -61 -46 -92 24 -95 166 -79 166 18 0 59 -68
101 -120 74z"/>
<path d="M2113 762 c-30 -5 -63 -48 -63 -83 0 -32 36 -77 65 -80 62 -9 113 43
100 101 -9 43 -54 70 -102 62z"/>
</g>
</svg>
